<svg width="21" height="21" viewBox="0 0 21 21" fill="none" xmlns="http://www.w3.org/2000/svg">
<g id="24 / symbols / facebook">
<path id="icon" fill-rule="evenodd" clip-rule="evenodd" d="M3.36024 1.71436H16.8047C17.7328 1.71436 18.4852 2.48186 18.4852 3.42863V17.1428C18.4852 18.0896 17.7328 18.8571 16.8047 18.8571H3.36024C2.4321 18.8571 1.67969 18.0896 1.67969 17.1428V3.42863C1.67969 2.48186 2.4321 1.71436 3.36024 1.71436ZM3.36024 3.42863V17.1428H16.8047V3.42863H3.36024ZM9.35399 10.2895H10.9227V15.4285H12.6033V10.2895H14.2691V8.57522H12.6033V7.71431C12.6033 7.24093 12.9795 6.85718 13.4436 6.85718H14.2839V5.1429H13.4436C12.0514 5.1429 10.9227 6.29416 10.9227 7.71431V8.57522H9.35399V10.2895Z" fill="#4186C7"/>
</g>
</svg>
