<svg width="21" height="21" viewBox="0 0 21 21" fill="none" xmlns="http://www.w3.org/2000/svg">
<g id="24 / symbols / instagram">
<path id="icon" fill-rule="evenodd" clip-rule="evenodd" d="M14.0549 1.71436H7.33268C4.54825 1.71436 2.29102 4.01688 2.29102 6.85718V13.7143C2.29102 16.5546 4.54825 18.8571 7.33268 18.8571H14.0549C16.8393 18.8571 19.0966 16.5546 19.0966 13.7143V6.85718C19.0966 4.01688 16.8393 1.71436 14.0549 1.71436ZM3.97157 6.85718C3.97157 4.96364 5.47639 3.42863 7.33268 3.42863H14.0549C15.9112 3.42863 17.416 4.96364 17.416 6.85718V13.7143C17.416 15.6078 15.9112 17.1428 14.0549 17.1428H7.33268C5.47639 17.1428 3.97157 15.6078 3.97157 13.7143V6.85718ZM10.6938 14.5714C8.37343 14.5714 6.49241 12.6526 6.49241 10.2857C6.49241 7.91881 8.37343 6.00004 10.6938 6.00004C13.0142 6.00004 14.8952 7.91881 14.8952 10.2857C14.8952 12.6526 13.0142 14.5714 10.6938 14.5714ZM10.6938 12.8571C12.086 12.8571 13.2146 11.7059 13.2146 10.2857C13.2146 8.86557 12.086 7.71431 10.6938 7.71431C9.30158 7.71431 8.17296 8.86557 8.17296 10.2857C8.17296 11.7059 9.30158 12.8571 10.6938 12.8571ZM15.7355 5.99967C15.7355 6.47286 15.3593 6.85645 14.8952 6.85645C14.4311 6.85645 14.0549 6.47286 14.0549 5.99967C14.0549 5.52649 14.4311 5.1429 14.8952 5.1429C15.3593 5.1429 15.7355 5.52649 15.7355 5.99967Z" fill="#A437D8"/>
</g>
</svg>
