<svg width="21" height="21" viewBox="0 0 21 21" fill="none" xmlns="http://www.w3.org/2000/svg">
<g id="24 / symbols / twitter">
<path id="icon" fill-rule="evenodd" clip-rule="evenodd" d="M17.9681 3.86429L19.1568 4.00591L18.6225 5.09833C18.3619 5.63107 18.101 6.1638 17.8399 6.69653C17.809 6.80936 17.7546 6.90828 17.6741 7.03707C17.6405 7.09088 17.5256 7.26205 17.5202 7.27027C17.4899 7.31667 17.4674 7.35327 17.4513 7.38259V9.42989C17.4513 14.6687 12.481 17.9978 7.78727 17.9978C6.8268 17.9978 6.09707 17.9508 5.26148 17.7648C3.88637 17.4587 2.86301 16.8502 2.39472 15.7868L1.9126 14.692L3.08427 14.5821C4.14421 14.4826 5.06321 14.2767 5.76896 14.0008C3.83143 13.683 2.74565 12.815 2.74565 11.1848V10.3276H3.58593C3.77054 10.3276 3.93702 10.3123 4.08584 10.2843C2.63171 9.39743 1.90337 7.9747 1.90337 6.00135C1.90321 5.91724 1.90321 5.91724 1.90272 5.8273C1.89725 4.83264 1.94963 4.30117 2.21656 3.62285C2.38764 3.18812 2.63492 2.78568 2.96773 2.41692L3.60181 1.71436L4.2183 2.43304C6.24989 4.80143 8.25817 6.23828 10.3086 6.41208C10.3174 4.22666 11.9366 2.5728 14.09 2.5728C15.0939 2.5728 16.0046 2.9615 16.7202 3.66239C17.1119 3.74449 17.5279 3.81185 17.9681 3.86429ZM16.1103 5.28177L15.8527 5.22227L15.6748 5.02314C15.2447 4.54166 14.7048 4.28707 14.09 4.28707C12.8607 4.28707 11.9892 5.18054 11.9892 6.42991C11.9892 6.6341 11.984 6.76239 11.959 6.93102C11.8595 7.60388 11.4896 8.14419 10.7287 8.14419C8.20953 8.14419 5.93682 6.76754 3.72062 4.41629C3.60636 4.77057 3.57949 5.13474 3.58325 5.8177C3.58375 5.90904 3.58375 5.90904 3.58393 6.00135C3.58393 7.75677 4.28112 8.71697 5.93187 9.25218L6.51762 9.44209V10.069C6.51762 10.8293 5.8115 11.545 4.77835 11.8655C5.25195 12.2321 6.22053 12.4299 7.78756 12.4299H8.62784V13.287C8.62784 14.5151 7.24451 15.4766 5.15485 15.9787C5.83634 16.1917 6.74374 16.2835 7.78726 16.2835C11.6647 16.2835 15.7707 13.5333 15.7707 9.42989V7.28705C15.7707 7.03524 15.8423 6.81666 15.9612 6.5894C16.0076 6.50055 16.0588 6.41583 16.122 6.31922C16.1339 6.30103 16.178 6.23512 16.213 6.18243L16.2796 6.04657C16.3875 5.82643 16.4954 5.60628 16.6032 5.38613C16.4356 5.35375 16.2713 5.31897 16.1103 5.28177Z" fill="#54AADA"/>
</g>
</svg>
