<svg width="21" height="21" viewBox="0 0 21 21" fill="none" xmlns="http://www.w3.org/2000/svg">
<g id="24 / symbols / youtube">
<path id="icon" fill-rule="evenodd" clip-rule="evenodd" d="M19.3404 15.5385C19.9146 14.5348 20.1599 12.9163 20.1599 10.2834C20.1599 7.66107 19.9169 6.05197 19.3366 5.0213C18.7551 3.95102 18.0654 3.61131 16.6966 3.52977C15.7621 3.46516 13.4396 3.42871 10.9191 3.42871C8.3932 3.42871 6.06969 3.46514 5.12821 3.53027C3.76706 3.6115 3.07718 3.95196 2.49052 5.02521C1.91867 6.05233 1.67383 7.66929 1.67383 10.293C1.67383 12.9018 1.91986 14.5269 2.49554 15.5507C3.07458 16.6101 3.75346 16.9465 5.1262 17.0448C6.11281 17.1037 8.56781 17.1429 10.9191 17.1429C13.2652 17.1429 15.719 17.1037 16.6966 17.0454C18.0819 16.9465 18.7607 16.6096 19.3404 15.5385ZM16.5908 5.24062C17.447 5.29167 17.6058 5.37017 17.8772 5.87124C18.2723 6.56926 18.4794 7.93529 18.4794 10.293C18.4794 12.6329 18.2712 14.0064 17.879 14.6923C17.6067 15.195 17.449 15.2732 16.5888 15.3347C15.6635 15.3898 13.2335 15.4286 10.9191 15.4286C8.5995 15.4286 6.16825 15.3898 5.23411 15.3341C4.38457 15.2732 4.22462 15.1939 3.95832 14.7067C3.5635 14.0045 3.35438 12.6233 3.35438 10.2834C3.35438 7.94496 3.56238 6.57131 3.95509 5.86591C4.22554 5.37121 4.38661 5.29172 5.23416 5.24112C6.13156 5.17908 8.43322 5.14298 10.9191 5.14298C13.3997 5.14298 15.7003 5.17909 16.5908 5.24062ZM9.23632 7.7144L13.4377 10.2858L9.23632 12.8572V7.7144Z" fill="#E12929"/>
</g>
</svg>
