<svg width="24" height="25" viewBox="0 0 24 25" fill="none" xmlns="http://www.w3.org/2000/svg">
<path fill-rule="evenodd" clip-rule="evenodd" d="M11.4152 12.8354C10.6028 12.006 9.93154 11.1097 9.57533 10.3837C9.45837 10.1453 9.38562 9.94528 9.35368 9.80231L10.0742 9.06691C10.2322 8.90553 10.3082 8.82697 10.4064 8.72168C10.6145 8.49864 10.7879 8.29482 10.9405 8.08505C11.627 7.14137 11.8821 6.11406 11.0695 5.189C9.53086 2.9935 8.49577 1.63557 7.83214 0.966886C6.46285 -0.412856 4.23198 -0.228018 3.04447 0.965524C2.47107 1.54184 2.27615 1.74055 1.68737 2.35057C-1.75115 5.85985 0.299597 13.1148 5.71809 18.6473C11.1356 24.1788 18.2483 26.272 21.6959 22.7533C22.2372 22.2212 22.6997 21.7492 23.0656 21.3547C24.2241 20.1057 24.399 17.928 23.0568 16.5054C22.4185 15.829 21.1492 14.8242 18.9042 13.1858C18.083 12.4431 17.1225 12.6042 16.2691 13.1753C15.8848 13.4325 15.6143 13.6841 15.1051 14.204L14.3853 14.9386C14.2454 14.906 14.0496 14.8319 13.8162 14.7127C13.1048 14.3492 12.2269 13.6642 11.4152 12.8354ZM16.3317 17.2795L17.2257 16.367C17.3784 16.2111 17.4992 16.0908 17.5991 15.9964C19.4092 17.3276 20.4685 18.1741 20.8963 18.6275C21.0417 18.7817 21.0149 19.1154 20.8875 19.2528C20.5566 19.6095 20.1251 20.0499 19.5947 20.5718C17.6376 22.5689 12.2413 20.9808 7.83895 16.4856C3.4349 11.9888 1.87848 6.48249 3.81572 4.50529C4.40145 3.89848 4.58567 3.71066 5.14857 3.14488C5.23794 3.05506 5.60677 3.02449 5.7249 3.14352C6.18695 3.60912 7.05211 4.73398 8.31669 6.52308C8.29074 6.55192 8.26322 6.58192 8.23411 6.61313C8.15806 6.69466 8.09398 6.76092 7.95287 6.905C7.66928 7.19453 7.54548 7.32092 7.42165 7.4473C7.3257 7.54521 7.22974 7.64311 7.05943 7.81687C5.33922 9.57145 6.7043 12.354 9.29387 14.9981C11.882 17.6408 14.6115 19.0352 16.3317 17.2795Z" fill="#4F4F4F"/>
</svg>
